<svg width="20" height="20" viewBox="0 0 20 20" fill="none" xmlns="http://www.w3.org/2000/svg">
<rect width="20" height="20" rx="10" fill="white"/>
<rect x="3.3335" y="3.33325" width="13.3333" height="13.3333" rx="6.66667" fill="white"/>
<path d="M9.99951 3.33325C11.8099 3.33325 12.0365 3.34093 12.7476 3.37329C13.4571 3.4058 13.9418 3.51806 14.3667 3.68286C14.8056 3.853 15.1765 4.08156 15.5474 4.45239C15.9181 4.82289 16.1461 5.19465 16.3169 5.63306C16.4808 6.05693 16.5931 6.54153 16.6265 7.25122C16.6584 7.96222 16.6665 8.18979 16.6665 10.0002C16.6665 11.8105 16.6584 12.0372 16.6265 12.7483C16.5931 13.4577 16.4808 13.9424 16.3169 14.3665C16.1461 14.8048 15.9182 15.1766 15.5474 15.5471C15.1771 15.9178 14.8058 16.1464 14.3677 16.3167C13.9436 16.4815 13.4581 16.5937 12.7485 16.6262C12.0374 16.6586 11.8102 16.6663 9.99951 16.6663C8.1896 16.6663 7.96242 16.6586 7.25146 16.6262C6.54202 16.5937 6.05741 16.4815 5.6333 16.3167C5.19512 16.1464 4.82304 15.9179 4.45264 15.5471C4.08194 15.1766 3.85352 14.8049 3.68311 14.3665C3.51839 13.9426 3.40618 13.458 3.37354 12.7483C3.34131 12.0372 3.3335 11.8106 3.3335 10.0002C3.3335 8.18992 3.34174 7.96211 3.37354 7.25122C3.40547 6.54191 3.51788 6.05703 3.68311 5.63306C3.8539 5.19483 4.08196 4.82286 4.45264 4.45239C4.8232 4.08169 5.1958 3.85314 5.63428 3.68286C6.05796 3.51815 6.54226 3.4058 7.25146 3.37329C7.96242 3.34094 8.19011 3.33326 9.99951 3.33325Z" fill="black"/>
<path d="M9.40381 4.53638C9.58131 4.5361 9.77994 4.53638 10.0024 4.53638C11.782 4.53638 11.993 4.54252 12.6958 4.57446C13.3458 4.60419 13.6991 4.7127 13.9341 4.80396C14.245 4.92476 14.4666 5.06973 14.6997 5.30298C14.933 5.53626 15.0776 5.75853 15.1987 6.06958C15.29 6.30431 15.3987 6.65712 15.4282 7.30688C15.4602 8.00961 15.4673 8.22112 15.4673 10.0002C15.4673 11.7788 15.4602 11.9902 15.4282 12.6926C15.3985 13.3426 15.29 13.6962 15.1987 13.9309C15.0779 14.2418 14.933 14.4634 14.6997 14.6965C14.4665 14.9297 14.245 15.0738 13.9341 15.1946C13.6994 15.2862 13.3458 15.3953 12.6958 15.425C11.9932 15.457 11.7819 15.4631 10.0024 15.4631C8.22235 15.4631 8.01082 15.457 7.30811 15.425C6.6581 15.395 6.30497 15.2858 6.06982 15.1946C5.75891 15.0738 5.53645 14.9298 5.30322 14.6965C5.06989 14.4632 4.92531 14.2412 4.8042 13.9299C4.71297 13.6952 4.6043 13.3424 4.57471 12.6926C4.54276 11.9899 4.53662 11.7785 4.53662 9.99829C4.53662 8.21799 4.54276 8.00772 4.57471 7.30493C4.60443 6.65538 4.71299 6.30261 4.8042 6.06763C4.92499 5.75664 5.07005 5.53426 5.30322 5.30103C5.53648 5.06777 5.75888 4.92309 6.06982 4.802C6.30483 4.71033 6.6581 4.60139 7.30811 4.57153C7.92304 4.54376 8.16143 4.53581 9.40381 4.53442V4.53638ZM9.82666 6.58228C8.01801 6.67419 6.57959 8.16974 6.57959 10.0012C6.57969 11.8919 8.11276 13.4241 10.0034 13.4241C11.894 13.424 13.4262 11.8918 13.4263 10.0012C13.4263 8.11061 11.894 6.57757 10.0034 6.57739L9.82666 6.58228ZM13.4771 5.64868C13.0741 5.68985 12.7594 6.02967 12.7593 6.4436C12.7593 6.88521 13.1175 7.2433 13.5591 7.24341C14.0008 7.24341 14.3589 6.88527 14.3589 6.4436C14.3588 6.00203 14.0007 5.6438 13.5591 5.6438L13.4771 5.64868Z" fill="white"/>
<path d="M10.0011 7.77856C11.2283 7.77856 12.2233 8.77344 12.2233 10.0008C12.2233 11.228 11.2283 12.2231 10.0011 12.2231C8.77368 12.2231 7.77881 11.228 7.77881 10.0008C7.77881 8.77344 8.77368 7.77856 10.0011 7.77856Z" fill="white"/>
</svg>
