<svg width="32" height="32" viewBox="0 0 32 32" fill="none" xmlns="http://www.w3.org/2000/svg">
<g clip-path="url(#clip0_10_1427)">
<path d="M4.00008 8C4.32666 8.00004 4.64186 8.11994 4.88591 8.33695C5.12996 8.55397 5.28587 8.853 5.32408 9.17733L5.33341 9.33333V17.3333H13.3334V10.6667C13.3335 10.3401 13.4534 10.0249 13.6704 9.78084C13.8874 9.53679 14.1864 9.38088 14.5107 9.34267L14.6667 9.33333H25.3334C26.3537 9.33328 27.3354 9.7231 28.0778 10.423C28.8201 11.123 29.2669 12.0801 29.3267 13.0987L29.3334 13.3333V24C29.333 24.3398 29.2029 24.6667 28.9696 24.9138C28.7363 25.1609 28.4175 25.3096 28.0782 25.3296C27.739 25.3495 27.4049 25.2391 27.1443 25.021C26.8837 24.8029 26.7162 24.4935 26.6761 24.156L26.6667 24V20H5.33341V24C5.33304 24.3398 5.20291 24.6667 4.96962 24.9138C4.73632 25.1609 4.41748 25.3096 4.07822 25.3296C3.73897 25.3495 3.40491 25.2391 3.1443 25.021C2.8837 24.8029 2.71622 24.4935 2.67608 24.156L2.66675 24V9.33333C2.66675 8.97971 2.80722 8.64057 3.05727 8.39052C3.30732 8.14048 3.64646 8 4.00008 8Z" fill="#1E3240"/>
<path d="M9.33341 10.6667C9.85227 10.6669 10.3598 10.8184 10.7938 11.1028C11.2279 11.3871 11.5695 11.7918 11.7769 12.2675C11.9843 12.7431 12.0485 13.2688 11.9615 13.7804C11.8746 14.2919 11.6403 14.7669 11.2873 15.1473C10.9344 15.5276 10.4782 15.7967 9.9746 15.9216C9.471 16.0466 8.9419 16.0219 8.45214 15.8505C7.96237 15.6792 7.53322 15.3688 7.21728 14.9572C6.90134 14.5456 6.71233 14.0508 6.67341 13.5334L6.66675 13.3334L6.67341 13.1334C6.72387 12.4625 7.02604 11.8355 7.51935 11.3781C8.01266 10.9206 8.66065 10.6665 9.33341 10.6667Z" fill="#1E3240"/>
</g>
<defs>
<clipPath id="clip0_10_1427">
<rect width="32" height="32" fill="white"/>
</clipPath>
</defs>
</svg>
