<svg width="33" height="33" viewBox="0 0 33 33" fill="none" xmlns="http://www.w3.org/2000/svg">
<g clip-path="url(#clip0_10_1403)">
<path d="M26.5002 17.0127L16.5002 26.9167L6.50024 17.0127C5.84065 16.3708 5.3211 15.5993 4.9743 14.7468C4.62751 13.8943 4.46099 12.9793 4.48522 12.0592C4.50946 11.1392 4.72392 10.2342 5.11512 9.40111C5.50631 8.56804 6.06575 7.825 6.75822 7.21876C7.45069 6.61253 8.26118 6.15624 9.13865 5.87863C10.0161 5.60102 10.9416 5.5081 11.8567 5.60573C12.7719 5.70335 13.6569 5.9894 14.4561 6.44587C15.2552 6.90233 15.9512 7.51933 16.5002 8.25799C17.0516 7.52469 17.7484 6.91309 18.547 6.46146C19.3457 6.00984 20.2289 5.72792 21.1415 5.63335C22.0541 5.53878 22.9763 5.63359 23.8506 5.91185C24.7249 6.19011 25.5323 6.64582 26.2223 7.25048C26.9123 7.85513 27.4701 8.5957 27.8608 9.42585C28.2515 10.256 28.4666 11.1578 28.4927 12.0749C28.5187 12.992 28.3553 13.9046 28.0124 14.7557C27.6696 15.6067 27.1548 16.3778 26.5002 17.0207" stroke="#1E3240" stroke-width="2.66667" stroke-linecap="round" stroke-linejoin="round"/>
</g>
<defs>
<clipPath id="clip0_10_1403">
<rect width="32" height="32" fill="white" transform="translate(0.5 0.25)"/>
</clipPath>
</defs>
</svg>
