<svg width="33" height="33" viewBox="0 0 33 33" fill="none" xmlns="http://www.w3.org/2000/svg">
<g clip-path="url(#clip0_10_1398)">
<path d="M27.8962 21.354C29.6695 15.8527 26.0509 8.65933 19.8335 4.25C19.6535 4.122 23.0202 13.1887 21.5775 16.4153C18.7069 14.4767 15.2362 11.7567 11.1669 8.25L10.5002 10.9167L5.83353 9.58333C11.6469 15.914 15.4509 19.8433 17.2469 21.3713C11.0362 24.1567 3.04686 20.0673 3.16686 20.25C4.52153 22.31 11.1669 28.25 17.8335 28.25C20.5002 28.25 22.8842 27.5807 24.1562 26.398C24.1629 26.3913 24.7322 25.8033 25.9935 26.1713C26.6655 26.3687 27.9442 27.0607 29.8335 28.25V26.2407C29.8335 24.4047 29.1469 22.6807 27.8962 21.354Z" stroke="#1E3240" stroke-width="2.66667" stroke-linecap="round" stroke-linejoin="round"/>
</g>
<defs>
<clipPath id="clip0_10_1398">
<rect width="32" height="32" fill="white" transform="translate(0.5 0.25)"/>
</clipPath>
</defs>
</svg>
