<svg width="32" height="32" viewBox="0 0 32 32" fill="none" xmlns="http://www.w3.org/2000/svg">
<g clip-path="url(#clip0_10_1433)">
<path d="M6.66675 9.33333C6.66675 10.7478 7.22865 12.1044 8.22885 13.1046C9.22904 14.1048 10.5856 14.6667 12.0001 14.6667C13.4146 14.6667 14.7711 14.1048 15.7713 13.1046C16.7715 12.1044 17.3334 10.7478 17.3334 9.33333C17.3334 7.91885 16.7715 6.56229 15.7713 5.5621C14.7711 4.5619 13.4146 4 12.0001 4C10.5856 4 9.22904 4.5619 8.22885 5.5621C7.22865 6.56229 6.66675 7.91885 6.66675 9.33333Z" stroke="#1E3240" stroke-width="2.66667" stroke-linecap="round" stroke-linejoin="round"/>
<path d="M4 28V25.3333C4 23.9188 4.5619 22.5623 5.5621 21.5621C6.56229 20.5619 7.91885 20 9.33333 20H14.6667C16.0812 20 17.4377 20.5619 18.4379 21.5621C19.4381 22.5623 20 23.9188 20 25.3333V28" stroke="#1E3240" stroke-width="2.66667" stroke-linecap="round" stroke-linejoin="round"/>
<path d="M21.3333 4.1731C22.4805 4.46683 23.4973 5.13403 24.2234 6.06951C24.9496 7.00499 25.3437 8.15554 25.3437 9.33976C25.3437 10.524 24.9496 11.6745 24.2234 12.61C23.4973 13.5455 22.4805 14.2127 21.3333 14.5064" stroke="#1E3240" stroke-width="2.66667" stroke-linecap="round" stroke-linejoin="round"/>
<path d="M28 28V25.3333C27.9932 24.1562 27.5972 23.0144 26.8737 22.0858C26.1502 21.1573 25.1398 20.4942 24 20.2" stroke="#1E3240" stroke-width="2.66667" stroke-linecap="round" stroke-linejoin="round"/>
</g>
<defs>
<clipPath id="clip0_10_1433">
<rect width="32" height="32" fill="white"/>
</clipPath>
</defs>
</svg>
